<?xml version="1.0" encoding="UTF-8"?><svg xmlns="http://www.w3.org/2000/svg" xmlns:xlink="http://www.w3.org/1999/xlink" fill-opacity="1" color-rendering="auto" color-interpolation="auto" text-rendering="auto" stroke="black" stroke-linecap="square" width="784" stroke-miterlimit="10" shape-rendering="auto" stroke-opacity="1" fill="black" stroke-dasharray="none" font-weight="normal" stroke-width="1" height="746" font-family="'Dialog'" font-style="normal" stroke-linejoin="miter" font-size="12px" stroke-dashoffset="0" image-rendering="auto">
  <!--Generated by ySVG 2.6-->
  <defs id="genericDefs"/>
  <g>
    <defs id="defs1">
      <linearGradient x1="724.9792" gradientUnits="userSpaceOnUse" x2="800.5877" y1="537.5" y2="572.5" id="linearGradient1" spreadMethod="reflect">
        <stop stop-opacity="1" stop-color="rgb(232,238,247)" offset="0%"/>
        <stop stop-opacity="1" stop-color="rgb(183,201,227)" offset="100%"/>
      </linearGradient>
      <linearGradient x1="1064.1486" gradientUnits="userSpaceOnUse" x2="1123.6167" y1="535" y2="575" id="linearGradient2" spreadMethod="reflect">
        <stop stop-opacity="1" stop-color="rgb(232,238,247)" offset="0%"/>
        <stop stop-opacity="1" stop-color="rgb(183,201,227)" offset="100%"/>
      </linearGradient>
      <linearGradient x1="599.6747" gradientUnits="userSpaceOnUse" x2="687.9792" y1="537.5" y2="572.5" id="linearGradient3" spreadMethod="reflect">
        <stop stop-opacity="1" stop-color="rgb(232,238,247)" offset="0%"/>
        <stop stop-opacity="1" stop-color="rgb(183,201,227)" offset="100%"/>
      </linearGradient>
      <linearGradient x1="837.5877" gradientUnits="userSpaceOnUse" x2="937.8083" y1="528.5" y2="581.5" id="linearGradient4" spreadMethod="reflect">
        <stop stop-opacity="1" stop-color="rgb(232,238,247)" offset="0%"/>
        <stop stop-opacity="1" stop-color="rgb(183,201,227)" offset="100%"/>
      </linearGradient>
      <linearGradient x1="974.8083" gradientUnits="userSpaceOnUse" x2="1027.1486" y1="528.5" y2="581.5" id="linearGradient5" spreadMethod="reflect">
        <stop stop-opacity="1" stop-color="rgb(232,238,247)" offset="0%"/>
        <stop stop-opacity="1" stop-color="rgb(183,201,227)" offset="100%"/>
      </linearGradient>
      <linearGradient x1="461.4701" gradientUnits="userSpaceOnUse" x2="562.6747" y1="528.5" y2="581.5" id="linearGradient6" spreadMethod="reflect">
        <stop stop-opacity="1" stop-color="rgb(232,238,247)" offset="0%"/>
        <stop stop-opacity="1" stop-color="rgb(183,201,227)" offset="100%"/>
      </linearGradient>
      <linearGradient x1="378.5299" gradientUnits="userSpaceOnUse" x2="424.4701" y1="535" y2="575" id="linearGradient7" spreadMethod="reflect">
        <stop stop-opacity="1" stop-color="rgb(232,238,247)" offset="0%"/>
        <stop stop-opacity="1" stop-color="rgb(183,201,227)" offset="100%"/>
      </linearGradient>
      <linearGradient x1="973.3083" gradientUnits="userSpaceOnUse" x2="1028.6486" y1="793.8051" y2="846.8051" id="linearGradient8" spreadMethod="reflect">
        <stop stop-opacity="1" stop-color="rgb(232,238,247)" offset="0%"/>
        <stop stop-opacity="1" stop-color="rgb(183,201,227)" offset="100%"/>
      </linearGradient>
      <linearGradient x1="837.5877" gradientUnits="userSpaceOnUse" x2="937.8083" y1="793.8051" y2="846.8051" id="linearGradient9" spreadMethod="reflect">
        <stop stop-opacity="1" stop-color="rgb(232,238,247)" offset="0%"/>
        <stop stop-opacity="1" stop-color="rgb(183,201,227)" offset="100%"/>
      </linearGradient>
      <linearGradient x1="724.9792" gradientUnits="userSpaceOnUse" x2="800.5877" y1="802.8051" y2="837.8051" id="linearGradient10" spreadMethod="reflect">
        <stop stop-opacity="1" stop-color="rgb(232,238,247)" offset="0%"/>
        <stop stop-opacity="1" stop-color="rgb(183,201,227)" offset="100%"/>
      </linearGradient>
      <linearGradient x1="599.6747" gradientUnits="userSpaceOnUse" x2="687.9792" y1="802.8051" y2="837.8051" id="linearGradient11" spreadMethod="reflect">
        <stop stop-opacity="1" stop-color="rgb(232,238,247)" offset="0%"/>
        <stop stop-opacity="1" stop-color="rgb(183,201,227)" offset="100%"/>
      </linearGradient>
      <linearGradient x1="467.3681" gradientUnits="userSpaceOnUse" x2="556.7767" y1="802.8051" y2="837.8051" id="linearGradient12" spreadMethod="reflect">
        <stop stop-opacity="1" stop-color="rgb(232,238,247)" offset="0%"/>
        <stop stop-opacity="1" stop-color="rgb(183,201,227)" offset="100%"/>
      </linearGradient>
      <linearGradient x1="371.7659" gradientUnits="userSpaceOnUse" x2="431.2341" y1="904.3051" y2="944.3051" id="linearGradient13" spreadMethod="reflect">
        <stop stop-opacity="1" stop-color="rgb(232,238,247)" offset="0%"/>
        <stop stop-opacity="1" stop-color="rgb(183,201,227)" offset="100%"/>
      </linearGradient>
      <linearGradient x1="378.5299" gradientUnits="userSpaceOnUse" x2="424.4701" y1="800.3051" y2="840.3051" id="linearGradient14" spreadMethod="reflect">
        <stop stop-opacity="1" stop-color="rgb(232,238,247)" offset="0%"/>
        <stop stop-opacity="1" stop-color="rgb(183,201,227)" offset="100%"/>
      </linearGradient>
      <linearGradient x1="970.0623" gradientUnits="userSpaceOnUse" x2="1031.8947" y1="891.5051" y2="957.1052" id="linearGradient15" spreadMethod="reflect">
        <stop stop-opacity="1" stop-color="rgb(232,238,247)" offset="0%"/>
        <stop stop-opacity="1" stop-color="rgb(183,201,227)" offset="100%"/>
      </linearGradient>
      <linearGradient x1="844.8418" gradientUnits="userSpaceOnUse" x2="930.5543" y1="897.8051" y2="950.8051" id="linearGradient16" spreadMethod="reflect">
        <stop stop-opacity="1" stop-color="rgb(232,238,247)" offset="0%"/>
        <stop stop-opacity="1" stop-color="rgb(183,201,227)" offset="100%"/>
      </linearGradient>
      <linearGradient x1="716.6932" gradientUnits="userSpaceOnUse" x2="808.8738" y1="906.8051" y2="941.8051" id="linearGradient17" spreadMethod="reflect">
        <stop stop-opacity="1" stop-color="rgb(232,238,247)" offset="0%"/>
        <stop stop-opacity="1" stop-color="rgb(183,201,227)" offset="100%"/>
      </linearGradient>
      <linearGradient x1="605.6628" gradientUnits="userSpaceOnUse" x2="681.9912" y1="897.8051" y2="950.8051" id="linearGradient18" spreadMethod="reflect">
        <stop stop-opacity="1" stop-color="rgb(232,238,247)" offset="0%"/>
        <stop stop-opacity="1" stop-color="rgb(183,201,227)" offset="100%"/>
      </linearGradient>
      <linearGradient x1="486.3943" gradientUnits="userSpaceOnUse" x2="543.7386" y1="891.5051" y2="957.1052" id="linearGradient19" spreadMethod="reflect">
        <stop stop-opacity="1" stop-color="rgb(232,238,247)" offset="0%"/>
        <stop stop-opacity="1" stop-color="rgb(183,201,227)" offset="100%"/>
      </linearGradient>
      <linearGradient x1="646.7514" gradientUnits="userSpaceOnUse" x2="763.4738" y1="642.3375" y2="707.9375" id="linearGradient20" spreadMethod="reflect">
        <stop stop-opacity="1" stop-color="rgb(232,238,247)" offset="0%"/>
        <stop stop-opacity="1" stop-color="rgb(183,201,227)" offset="100%"/>
      </linearGradient>
      <linearGradient x1="672.0962" gradientUnits="userSpaceOnUse" x2="731.5643" y1="1044.0477" y2="1084.0477" id="linearGradient21" spreadMethod="reflect">
        <stop stop-opacity="1" stop-color="rgb(232,238,247)" offset="0%"/>
        <stop stop-opacity="1" stop-color="rgb(183,201,227)" offset="100%"/>
      </linearGradient>
      <linearGradient x1="693.6598" gradientUnits="userSpaceOnUse" x2="739.6" y1="341.1324" y2="381.1324" id="linearGradient22" spreadMethod="reflect">
        <stop stop-opacity="1" stop-color="rgb(232,238,247)" offset="0%"/>
        <stop stop-opacity="1" stop-color="rgb(183,201,227)" offset="100%"/>
      </linearGradient>
      <clipPath clipPathUnits="userSpaceOnUse" id="clipPath1">
        <path d="M0 0 L784 0 L784 746 L0 746 L0 0 Z"/>
      </clipPath>
      <clipPath clipPathUnits="userSpaceOnUse" id="clipPath2">
        <path d="M351 336 L1135 336 L1135 1082 L351 1082 L351 336 Z"/>
      </clipPath>
      <clipPath clipPathUnits="userSpaceOnUse" id="clipPath3">
        <path d="M355 340 L1139 340 L1139 1086 L355 1086 L355 340 Z"/>
      </clipPath>
    </defs>
    <g fill="rgb(210,210,210)" text-rendering="geometricPrecision" shape-rendering="geometricPrecision" transform="matrix(1,0,0,1,-355,-340) translate(4,4)" stroke="rgb(210,210,210)">
      <rect x="368.5299" width="765.0868" height="168.3301" y="427.5699" clip-path="url(#clipPath2)" stroke="none"/>
    </g>
    <g fill="rgb(242,240,216)" text-rendering="geometricPrecision" shape-rendering="geometricPrecision" transform="matrix(1,0,0,1,-355,-340)" stroke="rgb(242,240,216)">
      <rect x="368.5299" width="765.0868" height="168.3301" y="427.5699" clip-path="url(#clipPath3)" stroke="none"/>
      <rect x="368.5299" y="427.5699" clip-path="url(#clipPath3)" fill="rgb(183,182,158)" width="765.0868" height="65.2904" stroke="none"/>
    </g>
    <g font-size="15px" stroke-linecap="butt" transform="matrix(1,0,0,1,-355,-340)" text-rendering="geometricPrecision" font-family="sans-serif" shape-rendering="geometricPrecision" stroke-miterlimit="1.45">
      <text x="370.5299" xml:space="preserve" y="445.605" clip-path="url(#clipPath3)" stroke="none">Repeat for:</text>
      <text x="370.5299" xml:space="preserve" y="466.0351" clip-path="url(#clipPath3)" stroke="none">- all OS in {win, linux, mac}</text>
      <text x="370.5299" xml:space="preserve" y="486.4653" clip-path="url(#clipPath3)" stroke="none">- all PYTHON_VER in 3.10 ... 3.12 </text>
      <rect fill="none" x="368.5299" width="765.0868" height="168.3301" y="427.5699" clip-path="url(#clipPath3)"/>
    </g>
    <g transform="matrix(1,0,0,1,-355,-340)" fill-opacity="0.502" fill="rgb(182,216,235)" text-rendering="geometricPrecision" shape-rendering="geometricPrecision" stroke="rgb(182,216,235)" stroke-opacity="0.502">
      <rect x="373.5299" y="499.0699" clip-path="url(#clipPath3)" width="755.0868" rx="4" ry="4" height="87.4301" stroke="none"/>
    </g>
    <g fill="rgb(153,204,255)" text-rendering="geometricPrecision" shape-rendering="geometricPrecision" transform="matrix(1,0,0,1,-355,-340)" stroke="rgb(153,204,255)">
      <rect x="373.5299" width="755.0868" height="24.4301" y="499.0699" clip-path="url(#clipPath3)" stroke="none"/>
    </g>
    <g font-size="15px" stroke-linecap="butt" transform="matrix(1,0,0,1,-355,-340)" text-rendering="geometricPrecision" font-family="sans-serif" shape-rendering="geometricPrecision" stroke-miterlimit="1.45">
      <text x="873.835" xml:space="preserve" y="517.105" clip-path="url(#clipPath3)" stroke="none">Test on Python PYTHON_VER, on OS</text>
    </g>
    <g stroke-linecap="round" transform="matrix(1,0,0,1,-355,-340)" stroke-dashoffset="2" fill="rgb(102,102,153)" text-rendering="geometricPrecision" shape-rendering="geometricPrecision" stroke-dasharray="0,4" stroke="rgb(102,102,153)" stroke-miterlimit="1.45">
      <rect x="373.5299" y="499.0699" clip-path="url(#clipPath3)" fill="none" width="755.0868" rx="4" ry="4" height="87.4301"/>
    </g>
    <g fill="url(#linearGradient1)" text-rendering="geometricPrecision" shape-rendering="geometricPrecision" transform="matrix(1,0,0,1,-355,-340)" stroke="url(#linearGradient1)">
      <path d="M724.9792 537.5 L800.5877 537.5 L800.5877 572.5 L724.9792 572.5 Z" stroke="none" clip-path="url(#clipPath3)"/>
    </g>
    <g text-rendering="geometricPrecision" stroke-miterlimit="1.45" shape-rendering="geometricPrecision" transform="matrix(1,0,0,1,-355,-340)" stroke-linecap="butt">
      <path fill="none" d="M724.9792 537.5 L800.5877 537.5 L800.5877 572.5 L724.9792 572.5 Z" clip-path="url(#clipPath3)"/>
      <text x="731.9792" xml:space="preserve" y="559.656" clip-path="url(#clipPath3)" font-family="sans-serif" stroke="none">Clone repo</text>
    </g>
    <g fill="url(#linearGradient2)" text-rendering="geometricPrecision" shape-rendering="geometricPrecision" transform="matrix(1,0,0,1,-355,-340)" stroke="url(#linearGradient2)">
      <rect x="1064.1486" y="535" clip-path="url(#clipPath3)" width="59.4681" rx="20" ry="20" height="40" stroke="none"/>
    </g>
    <g text-rendering="geometricPrecision" stroke-miterlimit="1.45" shape-rendering="geometricPrecision" transform="matrix(1,0,0,1,-355,-340)" stroke-linecap="butt">
      <rect x="1064.1486" y="535" clip-path="url(#clipPath3)" fill="none" width="59.4681" rx="20" ry="20" height="40"/>
      <text x="1083.1486" xml:space="preserve" y="559.656" clip-path="url(#clipPath3)" font-family="sans-serif" stroke="none">End</text>
    </g>
    <g fill="url(#linearGradient3)" text-rendering="geometricPrecision" shape-rendering="geometricPrecision" transform="matrix(1,0,0,1,-355,-340)" stroke="url(#linearGradient3)">
      <path d="M599.6747 537.5 L687.9792 537.5 L687.9792 572.5 L599.6747 572.5 Z" stroke="none" clip-path="url(#clipPath3)"/>
    </g>
    <g text-rendering="geometricPrecision" stroke-miterlimit="1.45" shape-rendering="geometricPrecision" transform="matrix(1,0,0,1,-355,-340)" stroke-linecap="butt">
      <path fill="none" d="M599.6747 537.5 L687.9792 537.5 L687.9792 572.5 L599.6747 572.5 Z" clip-path="url(#clipPath3)"/>
      <text x="606.6747" xml:space="preserve" y="559.656" clip-path="url(#clipPath3)" font-family="sans-serif" stroke="none">Install Poetry</text>
    </g>
    <g fill="url(#linearGradient4)" text-rendering="geometricPrecision" shape-rendering="geometricPrecision" transform="matrix(1,0,0,1,-355,-340)" stroke="url(#linearGradient4)">
      <path d="M837.5877 528.5 L937.8083 528.5 L937.8083 581.5 L837.5877 581.5 Z" stroke="none" clip-path="url(#clipPath3)"/>
    </g>
    <g text-rendering="geometricPrecision" stroke-miterlimit="1.45" shape-rendering="geometricPrecision" transform="matrix(1,0,0,1,-355,-340)" stroke-linecap="butt">
      <path fill="none" d="M837.5877 528.5 L937.8083 528.5 L937.8083 581.5 L837.5877 581.5 Z" clip-path="url(#clipPath3)"/>
      <text x="844.5877" xml:space="preserve" y="551.4839" clip-path="url(#clipPath3)" font-family="sans-serif" stroke="none">Restore Python</text>
      <text x="848.3737" xml:space="preserve" y="567.8281" clip-path="url(#clipPath3)" font-family="sans-serif" stroke="none">dependencies</text>
    </g>
    <g fill="url(#linearGradient5)" text-rendering="geometricPrecision" shape-rendering="geometricPrecision" transform="matrix(1,0,0,1,-355,-340)" stroke="url(#linearGradient5)">
      <path d="M974.8083 528.5 L1027.1486 528.5 L1027.1486 581.5 L974.8083 581.5 Z" stroke="none" clip-path="url(#clipPath3)"/>
    </g>
    <g text-rendering="geometricPrecision" stroke-miterlimit="1.45" shape-rendering="geometricPrecision" transform="matrix(1,0,0,1,-355,-340)" stroke-linecap="butt">
      <path fill="none" d="M974.8083 528.5 L1027.1486 528.5 L1027.1486 581.5 L974.8083 581.5 Z" clip-path="url(#clipPath3)"/>
      <text x="981.8083" xml:space="preserve" y="551.4839" clip-path="url(#clipPath3)" font-family="sans-serif" stroke="none">Run all</text>
      <text x="987.5143" xml:space="preserve" y="567.8281" clip-path="url(#clipPath3)" font-family="sans-serif" stroke="none">tests</text>
    </g>
    <g fill="url(#linearGradient6)" text-rendering="geometricPrecision" shape-rendering="geometricPrecision" transform="matrix(1,0,0,1,-355,-340)" stroke="url(#linearGradient6)">
      <path d="M461.4701 528.5 L562.6747 528.5 L562.6747 581.5 L461.4701 581.5 Z" stroke="none" clip-path="url(#clipPath3)"/>
    </g>
    <g text-rendering="geometricPrecision" stroke-miterlimit="1.45" shape-rendering="geometricPrecision" transform="matrix(1,0,0,1,-355,-340)" stroke-linecap="butt">
      <path fill="none" d="M461.4701 528.5 L562.6747 528.5 L562.6747 581.5 L461.4701 581.5 Z" clip-path="url(#clipPath3)"/>
      <text x="472.8081" xml:space="preserve" y="551.4839" clip-path="url(#clipPath3)" font-family="sans-serif" stroke="none">Setup Python </text>
      <text x="468.4701" xml:space="preserve" y="567.8281" clip-path="url(#clipPath3)" font-family="sans-serif" stroke="none">v. PYTHON_VER</text>
    </g>
    <g fill="url(#linearGradient7)" text-rendering="geometricPrecision" shape-rendering="geometricPrecision" transform="matrix(1,0,0,1,-355,-340)" stroke="url(#linearGradient7)">
      <ellipse rx="22.9701" ry="20" clip-path="url(#clipPath3)" cx="401.5" cy="555" stroke="none"/>
    </g>
    <g text-rendering="geometricPrecision" stroke-miterlimit="1.45" shape-rendering="geometricPrecision" transform="matrix(1,0,0,1,-355,-340)" stroke-linecap="butt">
      <ellipse rx="22.9701" fill="none" ry="20" clip-path="url(#clipPath3)" cx="401.5" cy="555"/>
      <text x="388.0299" xml:space="preserve" y="559.656" clip-path="url(#clipPath3)" font-family="sans-serif" stroke="none">Start</text>
    </g>
    <g text-rendering="geometricPrecision" stroke-miterlimit="1.45" stroke-dasharray="6,2" shape-rendering="geometricPrecision" transform="matrix(1,0,0,1,-355,-340)" stroke-linecap="butt">
      <path fill="none" d="M688.0001 555 L719.9901 555" clip-path="url(#clipPath3)"/>
      <path d="M723.9901 555 L711.9901 549 L723.9901 555 L711.9901 561 Z" clip-path="url(#clipPath3)" stroke="none"/>
      <path fill="none" stroke-miterlimit="10" stroke-dasharray="none" d="M723.9901 555 L711.9901 549 L723.9901 555 L711.9901 561 Z" clip-path="url(#clipPath3)" stroke-linecap="square"/>
      <path fill="none" d="M800.5689 555 L832.6243 555" clip-path="url(#clipPath3)"/>
      <path d="M836.6243 555 L824.6243 549 L836.6243 555 L824.6243 561 Z" clip-path="url(#clipPath3)" stroke="none"/>
      <path fill="none" stroke-miterlimit="10" stroke-dasharray="none" d="M836.6243 555 L824.6243 549 L836.6243 555 L824.6243 561 Z" clip-path="url(#clipPath3)" stroke-linecap="square"/>
      <path fill="none" d="M937.7837 555 L969.781 555" clip-path="url(#clipPath3)"/>
      <path d="M973.781 555 L961.781 549 L973.781 555 L961.781 561 Z" clip-path="url(#clipPath3)" stroke="none"/>
      <path fill="none" stroke-miterlimit="10" stroke-dasharray="none" d="M973.781 555 L961.781 549 L973.781 555 L961.781 561 Z" clip-path="url(#clipPath3)" stroke-linecap="square"/>
      <path fill="none" d="M1027.1531 555 L1059.1346 555" clip-path="url(#clipPath3)"/>
      <path d="M1063.1346 555 L1051.1346 549 L1063.1346 555 L1051.1346 561 Z" clip-path="url(#clipPath3)" stroke="none"/>
      <path fill="none" stroke-miterlimit="10" stroke-dasharray="none" d="M1063.1346 555 L1051.1346 549 L1063.1346 555 L1051.1346 561 Z" clip-path="url(#clipPath3)" stroke-linecap="square"/>
      <path fill="none" d="M562.6705 555 L594.6427 555" clip-path="url(#clipPath3)"/>
      <path d="M598.6427 555 L586.6427 549 L598.6427 555 L586.6427 561 Z" clip-path="url(#clipPath3)" stroke="none"/>
      <path fill="none" stroke-miterlimit="10" stroke-dasharray="none" d="M598.6427 555 L586.6427 549 L598.6427 555 L586.6427 561 Z" clip-path="url(#clipPath3)" stroke-linecap="square"/>
      <path fill="none" d="M424.4729 555 L456.4717 555" clip-path="url(#clipPath3)"/>
      <path d="M460.4717 555 L448.4717 549 L460.4717 555 L448.4717 561 Z" clip-path="url(#clipPath3)" stroke="none"/>
      <path fill="none" stroke-miterlimit="10" stroke-dasharray="none" d="M460.4717 555 L448.4717 549 L460.4717 555 L448.4717 561 Z" clip-path="url(#clipPath3)" stroke-linecap="square"/>
    </g>
    <g transform="matrix(1,0,0,1,-355,-340)" fill-opacity="0.5176" fill="rgb(202,236,255)" text-rendering="geometricPrecision" shape-rendering="geometricPrecision" stroke="rgb(202,236,255)" stroke-opacity="0.5176">
      <rect x="356.7659" y="754.375" clip-path="url(#clipPath3)" width="690.1287" rx="4" ry="4" height="243.2353" stroke="none"/>
    </g>
    <g fill="rgb(153,204,255)" text-rendering="geometricPrecision" shape-rendering="geometricPrecision" transform="matrix(1,0,0,1,-355,-340)" stroke="rgb(153,204,255)">
      <rect x="356.7659" width="690.1287" height="24.4301" y="754.375" clip-path="url(#clipPath3)" stroke="none"/>
    </g>
    <g font-size="15px" stroke-linecap="butt" transform="matrix(1,0,0,1,-355,-340)" text-rendering="geometricPrecision" font-family="sans-serif" shape-rendering="geometricPrecision" stroke-miterlimit="1.45">
      <text x="990.7143" xml:space="preserve" y="772.4101" clip-path="url(#clipPath3)" stroke="none">Release</text>
    </g>
    <g stroke-linecap="round" transform="matrix(1,0,0,1,-355,-340)" stroke-dashoffset="2" fill="rgb(102,102,153)" text-rendering="geometricPrecision" shape-rendering="geometricPrecision" stroke-dasharray="0,4" stroke="rgb(102,102,153)" stroke-miterlimit="1.45">
      <rect x="356.7659" y="754.375" clip-path="url(#clipPath3)" fill="none" width="690.1287" rx="4" ry="4" height="243.2353"/>
    </g>
    <g fill="url(#linearGradient8)" text-rendering="geometricPrecision" shape-rendering="geometricPrecision" transform="matrix(1,0,0,1,-355,-340)" stroke="url(#linearGradient8)">
      <path d="M973.3083 793.8051 L1028.6486 793.8051 L1028.6486 846.8051 L973.3083 846.8051 Z" stroke="none" clip-path="url(#clipPath3)"/>
    </g>
    <g text-rendering="geometricPrecision" stroke-miterlimit="1.45" shape-rendering="geometricPrecision" transform="matrix(1,0,0,1,-355,-340)" stroke-linecap="butt">
      <path fill="none" d="M973.3083 793.8051 L1028.6486 793.8051 L1028.6486 846.8051 L973.3083 846.8051 Z" clip-path="url(#clipPath3)"/>
      <text x="984.0704" xml:space="preserve" y="816.7891" clip-path="url(#clipPath3)" font-family="sans-serif" stroke="none">Bump</text>
      <text x="980.3083" xml:space="preserve" y="833.1332" clip-path="url(#clipPath3)" font-family="sans-serif" stroke="none">version</text>
    </g>
    <g fill="url(#linearGradient9)" text-rendering="geometricPrecision" shape-rendering="geometricPrecision" transform="matrix(1,0,0,1,-355,-340)" stroke="url(#linearGradient9)">
      <path d="M837.5877 793.8051 L937.8083 793.8051 L937.8083 846.8051 L837.5877 846.8051 Z" stroke="none" clip-path="url(#clipPath3)"/>
    </g>
    <g text-rendering="geometricPrecision" stroke-miterlimit="1.45" shape-rendering="geometricPrecision" transform="matrix(1,0,0,1,-355,-340)" stroke-linecap="butt">
      <path fill="none" d="M837.5877 793.8051 L937.8083 793.8051 L937.8083 846.8051 L837.5877 846.8051 Z" clip-path="url(#clipPath3)"/>
      <text x="844.5877" xml:space="preserve" y="816.7891" clip-path="url(#clipPath3)" font-family="sans-serif" stroke="none">Restore Python</text>
      <text x="848.3737" xml:space="preserve" y="833.1332" clip-path="url(#clipPath3)" font-family="sans-serif" stroke="none">dependencies</text>
    </g>
    <g fill="url(#linearGradient10)" text-rendering="geometricPrecision" shape-rendering="geometricPrecision" transform="matrix(1,0,0,1,-355,-340)" stroke="url(#linearGradient10)">
      <path d="M724.9792 802.8051 L800.5877 802.8051 L800.5877 837.8051 L724.9792 837.8051 Z" stroke="none" clip-path="url(#clipPath3)"/>
    </g>
    <g text-rendering="geometricPrecision" stroke-miterlimit="1.45" shape-rendering="geometricPrecision" transform="matrix(1,0,0,1,-355,-340)" stroke-linecap="butt">
      <path fill="none" d="M724.9792 802.8051 L800.5877 802.8051 L800.5877 837.8051 L724.9792 837.8051 Z" clip-path="url(#clipPath3)"/>
      <text x="731.9792" xml:space="preserve" y="824.9612" clip-path="url(#clipPath3)" font-family="sans-serif" stroke="none">Clone repo</text>
    </g>
    <g fill="url(#linearGradient11)" text-rendering="geometricPrecision" shape-rendering="geometricPrecision" transform="matrix(1,0,0,1,-355,-340)" stroke="url(#linearGradient11)">
      <path d="M599.6747 802.8051 L687.9792 802.8051 L687.9792 837.8051 L599.6747 837.8051 Z" stroke="none" clip-path="url(#clipPath3)"/>
    </g>
    <g text-rendering="geometricPrecision" stroke-miterlimit="1.45" shape-rendering="geometricPrecision" transform="matrix(1,0,0,1,-355,-340)" stroke-linecap="butt">
      <path fill="none" d="M599.6747 802.8051 L687.9792 802.8051 L687.9792 837.8051 L599.6747 837.8051 Z" clip-path="url(#clipPath3)"/>
      <text x="606.6747" xml:space="preserve" y="824.9612" clip-path="url(#clipPath3)" font-family="sans-serif" stroke="none">Install Poetry</text>
    </g>
    <g fill="url(#linearGradient12)" text-rendering="geometricPrecision" shape-rendering="geometricPrecision" transform="matrix(1,0,0,1,-355,-340)" stroke="url(#linearGradient12)">
      <path d="M467.3681 802.8051 L556.7767 802.8051 L556.7767 837.8051 L467.3681 837.8051 Z" stroke="none" clip-path="url(#clipPath3)"/>
    </g>
    <g text-rendering="geometricPrecision" stroke-miterlimit="1.45" shape-rendering="geometricPrecision" transform="matrix(1,0,0,1,-355,-340)" stroke-linecap="butt">
      <path fill="none" d="M467.3681 802.8051 L556.7767 802.8051 L556.7767 837.8051 L467.3681 837.8051 Z" clip-path="url(#clipPath3)"/>
      <text x="474.3681" xml:space="preserve" y="824.9612" clip-path="url(#clipPath3)" font-family="sans-serif" stroke="none">Setup Python</text>
    </g>
    <g fill="url(#linearGradient13)" text-rendering="geometricPrecision" shape-rendering="geometricPrecision" transform="matrix(1,0,0,1,-355,-340)" stroke="url(#linearGradient13)">
      <rect x="371.7659" y="904.3051" clip-path="url(#clipPath3)" width="59.4681" rx="20" ry="20" height="40" stroke="none"/>
    </g>
    <g text-rendering="geometricPrecision" stroke-miterlimit="1.45" shape-rendering="geometricPrecision" transform="matrix(1,0,0,1,-355,-340)" stroke-linecap="butt">
      <rect x="371.7659" y="904.3051" clip-path="url(#clipPath3)" fill="none" width="59.4681" rx="20" ry="20" height="40"/>
      <text x="390.7659" xml:space="preserve" y="928.9612" clip-path="url(#clipPath3)" font-family="sans-serif" stroke="none">End</text>
    </g>
    <g fill="url(#linearGradient14)" text-rendering="geometricPrecision" shape-rendering="geometricPrecision" transform="matrix(1,0,0,1,-355,-340)" stroke="url(#linearGradient14)">
      <ellipse rx="22.9701" ry="20" clip-path="url(#clipPath3)" cx="401.5" cy="820.3051" stroke="none"/>
    </g>
    <g text-rendering="geometricPrecision" stroke-miterlimit="1.45" shape-rendering="geometricPrecision" transform="matrix(1,0,0,1,-355,-340)" stroke-linecap="butt">
      <ellipse rx="22.9701" fill="none" ry="20" clip-path="url(#clipPath3)" cx="401.5" cy="820.3051"/>
      <text x="388.0299" xml:space="preserve" y="824.9612" clip-path="url(#clipPath3)" font-family="sans-serif" stroke="none">Start</text>
    </g>
    <g fill="url(#linearGradient15)" text-rendering="geometricPrecision" shape-rendering="geometricPrecision" transform="matrix(1,0,0,1,-355,-340)" stroke="url(#linearGradient15)">
      <path d="M970.0623 891.5051 L1031.8947 891.5051 L1031.8947 957.1052 L970.0623 957.1052 Z" stroke="none" clip-path="url(#clipPath3)"/>
    </g>
    <g text-rendering="geometricPrecision" stroke-miterlimit="1.45" shape-rendering="geometricPrecision" transform="matrix(1,0,0,1,-355,-340)" stroke-linecap="butt">
      <path fill="none" d="M970.0623 891.5051 L1031.8947 891.5051 L1031.8947 957.1052 L970.0623 957.1052 Z" clip-path="url(#clipPath3)"/>
      <text x="977.0623" xml:space="preserve" y="912.6171" clip-path="url(#clipPath3)" font-family="sans-serif" stroke="none">Commit </text>
      <text x="980.3083" xml:space="preserve" y="928.9612" clip-path="url(#clipPath3)" font-family="sans-serif" stroke="none">version</text>
      <text x="980.2423" xml:space="preserve" y="945.3053" clip-path="url(#clipPath3)" font-family="sans-serif" stroke="none">change</text>
    </g>
    <g fill="url(#linearGradient16)" text-rendering="geometricPrecision" shape-rendering="geometricPrecision" transform="matrix(1,0,0,1,-355,-340)" stroke="url(#linearGradient16)">
      <path d="M844.8418 897.8051 L930.5543 897.8051 L930.5543 950.8051 L844.8418 950.8051 Z" stroke="none" clip-path="url(#clipPath3)"/>
    </g>
    <g text-rendering="geometricPrecision" stroke-miterlimit="1.45" shape-rendering="geometricPrecision" transform="matrix(1,0,0,1,-355,-340)" stroke-linecap="butt">
      <path fill="none" d="M844.8418 897.8051 L930.5543 897.8051 L930.5543 950.8051 L844.8418 950.8051 Z" clip-path="url(#clipPath3)"/>
      <text x="851.8418" xml:space="preserve" y="920.7891" clip-path="url(#clipPath3)" font-family="sans-serif" stroke="none">Build Python</text>
      <text x="864.1179" xml:space="preserve" y="937.1332" clip-path="url(#clipPath3)" font-family="sans-serif" stroke="none">package</text>
    </g>
    <g fill="url(#linearGradient17)" text-rendering="geometricPrecision" shape-rendering="geometricPrecision" transform="matrix(1,0,0,1,-355,-340)" stroke="url(#linearGradient17)">
      <path d="M716.6932 906.8051 L808.8738 906.8051 L808.8738 941.8051 L716.6932 941.8051 Z" stroke="none" clip-path="url(#clipPath3)"/>
    </g>
    <g text-rendering="geometricPrecision" stroke-miterlimit="1.45" shape-rendering="geometricPrecision" transform="matrix(1,0,0,1,-355,-340)" stroke-linecap="butt">
      <path fill="none" d="M716.6932 906.8051 L808.8738 906.8051 L808.8738 941.8051 L716.6932 941.8051 Z" clip-path="url(#clipPath3)"/>
      <text x="723.6932" xml:space="preserve" y="928.9612" clip-path="url(#clipPath3)" font-family="sans-serif" stroke="none">Push changes</text>
    </g>
    <g fill="url(#linearGradient18)" text-rendering="geometricPrecision" shape-rendering="geometricPrecision" transform="matrix(1,0,0,1,-355,-340)" stroke="url(#linearGradient18)">
      <path d="M605.6628 897.8051 L681.9912 897.8051 L681.9912 950.8051 L605.6628 950.8051 Z" stroke="none" clip-path="url(#clipPath3)"/>
    </g>
    <g text-rendering="geometricPrecision" stroke-miterlimit="1.45" shape-rendering="geometricPrecision" transform="matrix(1,0,0,1,-355,-340)" stroke-linecap="butt">
      <path fill="none" d="M605.6628 897.8051 L681.9912 897.8051 L681.9912 950.8051 L605.6628 950.8051 Z" clip-path="url(#clipPath3)"/>
      <text x="612.6628" xml:space="preserve" y="920.7891" clip-path="url(#clipPath3)" font-family="sans-serif" stroke="none">Publish on </text>
      <text x="619.7128" xml:space="preserve" y="937.1332" clip-path="url(#clipPath3)" font-family="sans-serif" stroke="none">TestPyPI</text>
    </g>
    <g fill="url(#linearGradient19)" text-rendering="geometricPrecision" shape-rendering="geometricPrecision" transform="matrix(1,0,0,1,-355,-340)" stroke="url(#linearGradient19)">
      <path d="M486.3943 891.5051 L543.7386 891.5051 L543.7386 957.1052 L486.3943 957.1052 Z" stroke="none" clip-path="url(#clipPath3)"/>
    </g>
    <g text-rendering="geometricPrecision" stroke-miterlimit="1.45" shape-rendering="geometricPrecision" transform="matrix(1,0,0,1,-355,-340)" stroke-linecap="butt">
      <path fill="none" d="M486.3943 891.5051 L543.7386 891.5051 L543.7386 957.1052 L486.3943 957.1052 Z" clip-path="url(#clipPath3)"/>
      <text x="496.4963" xml:space="preserve" y="912.6171" clip-path="url(#clipPath3)" font-family="sans-serif" stroke="none">Create</text>
      <text x="495.1403" xml:space="preserve" y="928.9612" clip-path="url(#clipPath3)" font-family="sans-serif" stroke="none">GitHub</text>
      <text x="493.3943" xml:space="preserve" y="945.3053" clip-path="url(#clipPath3)" font-family="sans-serif" stroke="none">Release</text>
    </g>
    <g fill="url(#linearGradient20)" text-rendering="geometricPrecision" shape-rendering="geometricPrecision" transform="matrix(1,0,0,1,-355,-340)" stroke="url(#linearGradient20)">
      <path d="M705.1126 642.3375 L763.4738 675.1375 L705.1126 707.9375 L646.7514 675.1375 Z" stroke="none" clip-path="url(#clipPath3)"/>
    </g>
    <g text-rendering="geometricPrecision" stroke-miterlimit="1.45" shape-rendering="geometricPrecision" transform="matrix(1,0,0,1,-355,-340)" stroke-linecap="butt">
      <path fill="none" d="M705.1126 642.3375 L763.4738 675.1375 L705.1126 707.9375 L646.7514 675.1375 Z" clip-path="url(#clipPath3)"/>
      <text x="677.7404" xml:space="preserve" y="671.6215" clip-path="url(#clipPath3)" font-family="sans-serif" stroke="none">branch is </text>
      <text x="680.3384" xml:space="preserve" y="687.9656" clip-path="url(#clipPath3)" font-family="sans-serif" stroke="none">"master"</text>
    </g>
    <g fill="url(#linearGradient21)" text-rendering="geometricPrecision" shape-rendering="geometricPrecision" transform="matrix(1,0,0,1,-355,-340)" stroke="url(#linearGradient21)">
      <rect x="672.0962" y="1044.0478" clip-path="url(#clipPath3)" width="59.4681" rx="20" ry="20" height="40" stroke="none"/>
    </g>
    <g text-rendering="geometricPrecision" stroke-miterlimit="1.45" stroke-width="2" shape-rendering="geometricPrecision" transform="matrix(1,0,0,1,-355,-340)" stroke-linecap="butt">
      <rect x="672.0962" y="1044.0478" clip-path="url(#clipPath3)" fill="none" width="59.4681" rx="20" ry="20" height="40"/>
      <text x="691.0962" y="1068.7039" clip-path="url(#clipPath3)" font-family="sans-serif" stroke="none" stroke-width="1" xml:space="preserve">End</text>
    </g>
    <g fill="url(#linearGradient22)" text-rendering="geometricPrecision" shape-rendering="geometricPrecision" transform="matrix(1,0,0,1,-355,-340)" stroke="url(#linearGradient22)">
      <ellipse rx="22.9701" ry="20" clip-path="url(#clipPath3)" cx="716.6299" cy="361.1324" stroke="none"/>
    </g>
    <g text-rendering="geometricPrecision" stroke-miterlimit="1.45" shape-rendering="geometricPrecision" transform="matrix(1,0,0,1,-355,-340)" stroke-linecap="butt">
      <ellipse rx="22.9701" fill="none" ry="20" clip-path="url(#clipPath3)" cx="716.6299" cy="361.1324"/>
      <text x="703.1598" xml:space="preserve" y="365.7884" clip-path="url(#clipPath3)" font-family="sans-serif" stroke="none">Start</text>
    </g>
    <g text-rendering="geometricPrecision" stroke-miterlimit="1.45" stroke-dasharray="6,2" shape-rendering="geometricPrecision" transform="matrix(1,0,0,1,-355,-340)" stroke-linecap="butt">
      <path fill="none" d="M937.7837 820.3051 L968.2999 820.3051" clip-path="url(#clipPath3)"/>
      <path d="M972.2999 820.3051 L960.2999 814.3051 L972.2999 820.3051 L960.2999 826.3051 Z" clip-path="url(#clipPath3)" stroke="none"/>
      <path fill="none" stroke-miterlimit="10" stroke-dasharray="none" d="M972.2999 820.3051 L960.2999 814.3051 L972.2999 820.3051 L960.2999 826.3051 Z" clip-path="url(#clipPath3)" stroke-linecap="square"/>
      <path fill="none" d="M800.5689 820.3051 L832.6243 820.3051" clip-path="url(#clipPath3)"/>
      <path d="M836.6243 820.3051 L824.6243 814.3051 L836.6243 820.3051 L824.6243 826.3051 Z" clip-path="url(#clipPath3)" stroke="none"/>
      <path fill="none" stroke-miterlimit="10" stroke-dasharray="none" d="M836.6243 820.3051 L824.6243 814.3051 L836.6243 820.3051 L824.6243 826.3051 Z" clip-path="url(#clipPath3)" stroke-linecap="square"/>
      <path fill="none" d="M688.0001 820.3051 L719.9901 820.3051" clip-path="url(#clipPath3)"/>
      <path d="M723.9901 820.3051 L711.9901 814.3051 L723.9901 820.3051 L711.9901 826.3051 Z" clip-path="url(#clipPath3)" stroke="none"/>
      <path fill="none" stroke-miterlimit="10" stroke-dasharray="none" d="M723.9901 820.3051 L711.9901 814.3051 L723.9901 820.3051 L711.9901 826.3051 Z" clip-path="url(#clipPath3)" stroke-linecap="square"/>
      <path fill="none" d="M556.7519 820.3051 L594.6517 820.3051" clip-path="url(#clipPath3)"/>
      <path d="M598.6517 820.3051 L586.6517 814.3051 L598.6517 820.3051 L586.6517 826.3051 Z" clip-path="url(#clipPath3)" stroke="none"/>
      <path fill="none" stroke-miterlimit="10" stroke-dasharray="none" d="M598.6517 820.3051 L586.6517 814.3051 L598.6517 820.3051 L586.6517 826.3051 Z" clip-path="url(#clipPath3)" stroke-linecap="square"/>
      <path fill="none" d="M424.4729 820.3051 L462.3744 820.3051" clip-path="url(#clipPath3)"/>
      <path d="M466.3744 820.3051 L454.3744 814.3051 L466.3744 820.3051 L454.3744 826.3051 Z" clip-path="url(#clipPath3)" stroke="none"/>
      <path fill="none" stroke-miterlimit="10" stroke-dasharray="none" d="M466.3744 820.3051 L454.3744 814.3051 L466.3744 820.3051 L454.3744 826.3051 Z" clip-path="url(#clipPath3)" stroke-linecap="square"/>
      <path fill="none" d="M1000.9785 846.7875 L1000.9785 886.4889" clip-path="url(#clipPath3)"/>
      <path d="M1000.9785 890.4889 L1006.9785 878.4889 L1000.9785 890.4889 L994.9785 878.4889 Z" clip-path="url(#clipPath3)" stroke="none"/>
      <path fill="none" stroke-miterlimit="10" stroke-dasharray="none" d="M1000.9785 890.4889 L1006.9785 878.4889 L1000.9785 890.4889 L994.9785 878.4889 Z" clip-path="url(#clipPath3)" stroke-linecap="square"/>
      <path fill="none" d="M970.0863 924.3051 L935.5416 924.3051" clip-path="url(#clipPath3)"/>
      <path d="M931.5416 924.3051 L943.5416 930.3051 L931.5416 924.3051 L943.5416 918.3051 Z" clip-path="url(#clipPath3)" stroke="none"/>
      <path fill="none" stroke-miterlimit="10" stroke-dasharray="none" d="M931.5416 924.3051 L943.5416 930.3051 L931.5416 924.3051 L943.5416 918.3051 Z" clip-path="url(#clipPath3)" stroke-linecap="square"/>
      <path fill="none" d="M844.8502 924.3051 L813.9059 924.3051" clip-path="url(#clipPath3)"/>
      <path d="M809.9059 924.3051 L821.9059 930.3051 L809.9059 924.3051 L821.9059 918.3051 Z" clip-path="url(#clipPath3)" stroke="none"/>
      <path fill="none" stroke-miterlimit="10" stroke-dasharray="none" d="M809.9059 924.3051 L821.9059 930.3051 L809.9059 924.3051 L821.9059 918.3051 Z" clip-path="url(#clipPath3)" stroke-linecap="square"/>
      <path fill="none" d="M716.6937 924.3051 L687.0037 924.3051" clip-path="url(#clipPath3)"/>
      <path d="M683.0037 924.3051 L695.0037 930.3051 L683.0037 924.3051 L695.0037 918.3051 Z" clip-path="url(#clipPath3)" stroke="none"/>
      <path fill="none" stroke-miterlimit="10" stroke-dasharray="none" d="M683.0037 924.3051 L695.0037 930.3051 L683.0037 924.3051 L695.0037 918.3051 Z" clip-path="url(#clipPath3)" stroke-linecap="square"/>
      <path fill="none" d="M605.6326 924.3051 L548.7664 924.3051" clip-path="url(#clipPath3)"/>
      <path d="M544.7664 924.3051 L556.7664 930.3051 L544.7664 924.3051 L556.7664 918.3051 Z" clip-path="url(#clipPath3)" stroke="none"/>
      <path fill="none" stroke-miterlimit="10" stroke-dasharray="none" d="M544.7664 924.3051 L556.7664 930.3051 L544.7664 924.3051 L556.7664 918.3051 Z" clip-path="url(#clipPath3)" stroke-linecap="square"/>
      <path fill="none" d="M486.3698 924.3051 L436.2127 924.3051" clip-path="url(#clipPath3)"/>
      <path d="M432.2127 924.3051 L444.2127 930.3051 L432.2127 924.3051 L444.2127 918.3051 Z" clip-path="url(#clipPath3)" stroke="none"/>
      <path fill="none" stroke-miterlimit="10" stroke-dasharray="none" d="M432.2127 924.3051 L444.2127 930.3051 L432.2127 924.3051 L444.2127 918.3051 Z" clip-path="url(#clipPath3)" stroke-linecap="square"/>
      <path fill="none" d="M706.4792 595.9188 L705.2598 637.3291" clip-path="url(#clipPath3)"/>
      <path d="M705.142 641.3274 L711.4926 629.5092 L705.142 641.3274 L699.4978 629.156 Z" clip-path="url(#clipPath3)" stroke="none"/>
      <path fill="none" stroke-miterlimit="10" stroke-dasharray="none" d="M705.142 641.3274 L711.4926 629.5092 L705.142 641.3274 L699.4978 629.156 Z" clip-path="url(#clipPath3)" stroke-linecap="square"/>
      <path fill="none" d="M704.5813 707.649 L703.8994 749.3798" clip-path="url(#clipPath3)"/>
      <path d="M703.834 753.3793 L710.0292 741.4789 L703.834 753.3793 L698.0308 741.2829 Z" clip-path="url(#clipPath3)" stroke="none"/>
      <path fill="none" stroke-miterlimit="10" stroke-dasharray="none" d="M703.834 753.3793 L710.0292 741.4789 L703.834 753.3793 L698.0308 741.2829 Z" clip-path="url(#clipPath3)" stroke-linecap="square"/>
      <text x="665.0066" y="727.7656" clip-path="url(#clipPath3)" font-family="sans-serif" stroke-dasharray="none" stroke="none" xml:space="preserve">yes</text>
      <path fill="none" d="M701.8303 997.6219 L701.8303 1039.0358" clip-path="url(#clipPath3)"/>
      <path d="M701.8303 1043.0358 L707.8303 1031.0358 L701.8303 1043.0358 L695.8303 1031.0358 Z" clip-path="url(#clipPath3)" stroke="none"/>
      <path fill="none" stroke-miterlimit="10" stroke-dasharray="none" d="M701.8303 1043.0358 L707.8303 1031.0358 L701.8303 1043.0358 L695.8303 1031.0358 Z" clip-path="url(#clipPath3)" stroke-linecap="square"/>
      <path fill="none" d="M763.4715 675.1375 L1078.9015 675.1375 L1078.9015 1064.0477 L736.5191 1064.0477" clip-path="url(#clipPath3)"/>
      <path d="M732.5191 1064.0477 L744.5191 1070.0477 L732.5191 1064.0477 L744.5191 1058.0477 Z" clip-path="url(#clipPath3)" stroke="none"/>
      <path fill="none" stroke-miterlimit="10" stroke-dasharray="none" d="M732.5191 1064.0477 L744.5191 1070.0477 L732.5191 1064.0477 L744.5191 1058.0477 Z" clip-path="url(#clipPath3)" stroke-linecap="square"/>
      <text x="1101.5635" y="874.2487" clip-path="url(#clipPath3)" font-family="sans-serif" stroke-dasharray="none" stroke="none" xml:space="preserve">no</text>
      <path fill="none" d="M716.6299 381.0975 L716.6299 422.5669" clip-path="url(#clipPath3)"/>
      <path d="M716.6299 426.5669 L722.6299 414.5669 L716.6299 426.5669 L710.6299 414.5669 Z" clip-path="url(#clipPath3)" stroke="none"/>
      <path fill="none" stroke-miterlimit="10" stroke-dasharray="none" d="M716.6299 426.5669 L722.6299 414.5669 L716.6299 426.5669 L710.6299 414.5669 Z" clip-path="url(#clipPath3)" stroke-linecap="square"/>
    </g>
  </g>
</svg>
