<svg aria-roledescription="gitGraph" role="graphics-document document" viewBox="-240.86666870117188 -34.70000076293945 1348.86669921875 661.9865112304688" height="100%" xmlns="http://www.w3.org/2000/svg" width="1348.86669921875" id="graph-div" style="max-width: 100%;" xmlns:xlink="http://www.w3.org/1999/xlink"><style>@import url("https://cdnjs.cloudflare.com/ajax/libs/font-awesome/6.5.1/css/all.min.css");'</style><style>#graph-div{font-family:"trebuchet ms",verdana,arial,sans-serif;font-size:16px;fill:#333;}#graph-div .error-icon{fill:#552222;}#graph-div .error-text{fill:#552222;stroke:#552222;}#graph-div .edge-thickness-normal{stroke-width:2px;}#graph-div .edge-thickness-thick{stroke-width:3.5px;}#graph-div .edge-pattern-solid{stroke-dasharray:0;}#graph-div .edge-pattern-dashed{stroke-dasharray:3;}#graph-div .edge-pattern-dotted{stroke-dasharray:2;}#graph-div .marker{fill:#333333;stroke:#333333;}#graph-div .marker.cross{stroke:#333333;}#graph-div svg{font-family:"trebuchet ms",verdana,arial,sans-serif;font-size:16px;}#graph-div .commit-id,#graph-div .commit-msg,#graph-div .branch-label{fill:lightgrey;color:lightgrey;font-family:'trebuchet ms',verdana,arial,sans-serif;font-family:var(--mermaid-font-family);}#graph-div .branch-label0{fill:#ffffff;}#graph-div .commit0{stroke:hsl(240, 100%, 46.2745098039%);fill:hsl(240, 100%, 46.2745098039%);}#graph-div .commit-highlight0{stroke:hsl(60, 100%, 3.7254901961%);fill:hsl(60, 100%, 3.7254901961%);}#graph-div .label0{fill:hsl(240, 100%, 46.2745098039%);}#graph-div .arrow0{stroke:hsl(240, 100%, 46.2745098039%);}#graph-div .branch-label1{fill:black;}#graph-div .commit1{stroke:hsl(60, 100%, 43.5294117647%);fill:hsl(60, 100%, 43.5294117647%);}#graph-div .commit-highlight1{stroke:rgb(0, 0, 160.5);fill:rgb(0, 0, 160.5);}#graph-div .label1{fill:hsl(60, 100%, 43.5294117647%);}#graph-div .arrow1{stroke:hsl(60, 100%, 43.5294117647%);}#graph-div .branch-label2{fill:black;}#graph-div .commit2{stroke:hsl(80, 100%, 46.2745098039%);fill:hsl(80, 100%, 46.2745098039%);}#graph-div .commit-highlight2{stroke:rgb(48.8333333334, 0, 146.5000000001);fill:rgb(48.8333333334, 0, 146.5000000001);}#graph-div .label2{fill:hsl(80, 100%, 46.2745098039%);}#graph-div .arrow2{stroke:hsl(80, 100%, 46.2745098039%);}#graph-div .branch-label3{fill:#ffffff;}#graph-div .commit3{stroke:hsl(210, 100%, 46.2745098039%);fill:hsl(210, 100%, 46.2745098039%);}#graph-div .commit-highlight3{stroke:rgb(146.5000000001, 73.2500000001, 0);fill:rgb(146.5000000001, 73.2500000001, 0);}#graph-div .label3{fill:hsl(210, 100%, 46.2745098039%);}#graph-div .arrow3{stroke:hsl(210, 100%, 46.2745098039%);}#graph-div .branch-label4{fill:black;}#graph-div .commit4{stroke:hsl(180, 100%, 46.2745098039%);fill:hsl(180, 100%, 46.2745098039%);}#graph-div .commit-highlight4{stroke:rgb(146.5000000001, 0, 0);fill:rgb(146.5000000001, 0, 0);}#graph-div .label4{fill:hsl(180, 100%, 46.2745098039%);}#graph-div .arrow4{stroke:hsl(180, 100%, 46.2745098039%);}#graph-div .branch-label5{fill:black;}#graph-div .commit5{stroke:hsl(150, 100%, 46.2745098039%);fill:hsl(150, 100%, 46.2745098039%);}#graph-div .commit-highlight5{stroke:rgb(146.5000000001, 0, 73.2500000001);fill:rgb(146.5000000001, 0, 73.2500000001);}#graph-div .label5{fill:hsl(150, 100%, 46.2745098039%);}#graph-div .arrow5{stroke:hsl(150, 100%, 46.2745098039%);}#graph-div .branch-label6{fill:black;}#graph-div .commit6{stroke:hsl(300, 100%, 46.2745098039%);fill:hsl(300, 100%, 46.2745098039%);}#graph-div .commit-highlight6{stroke:rgb(0, 146.5000000001, 0);fill:rgb(0, 146.5000000001, 0);}#graph-div .label6{fill:hsl(300, 100%, 46.2745098039%);}#graph-div .arrow6{stroke:hsl(300, 100%, 46.2745098039%);}#graph-div .branch-label7{fill:black;}#graph-div .commit7{stroke:hsl(0, 100%, 46.2745098039%);fill:hsl(0, 100%, 46.2745098039%);}#graph-div .commit-highlight7{stroke:rgb(0, 146.5000000001, 146.5000000001);fill:rgb(0, 146.5000000001, 146.5000000001);}#graph-div .label7{fill:hsl(0, 100%, 46.2745098039%);}#graph-div .arrow7{stroke:hsl(0, 100%, 46.2745098039%);}#graph-div .branch{stroke-width:1;stroke:#333333;stroke-dasharray:2;}#graph-div .commit-label{font-size:10px;fill:#000021;}#graph-div .commit-label-bkg{font-size:10px;fill:#ffffde;opacity:0.5;}#graph-div .tag-label{font-size:10px;fill:#131300;}#graph-div .tag-label-bkg{fill:#ECECFF;stroke:hsl(240, 60%, 86.2745098039%);}#graph-div .tag-hole{fill:#333;}#graph-div .commit-merge{stroke:#ECECFF;fill:#ECECFF;}#graph-div .commit-reverse{stroke:#ECECFF;fill:#ECECFF;stroke-width:3;}#graph-div .commit-highlight-inner{stroke:#ECECFF;fill:#ECECFF;}#graph-div .arrow{stroke-width:8;stroke-linecap:round;fill:none;}#graph-div .gitTitleText{text-anchor:middle;font-size:18px;fill:#333;}#graph-div :root{--mermaid-font-family:"trebuchet ms",verdana,arial,sans-serif;}</style><g></g><g class="commit-bullets"></g><g class="commit-labels"></g><g><line class="branch branch0" y2="0" x2="1100" y1="0" x1="0"></line><rect transform="translate(-19, -9.5)" height="23" width="67.46666717529297" y="-1.5" x="-83.46666717529297" ry="4" rx="4" class="branchLabelBkg label0"></rect><g class="branchLabel"><g transform="translate(-93.46666717529297, -10.5)" class="label branch-label0"><text><tspan class="row" x="0" dy="1em" xml:space="preserve">master</tspan></text></g></g><line class="branch branch1" y2="90" x2="1100" y1="90" x1="0"></line><rect transform="translate(-19, 80.5)" height="23" width="74.43333435058594" y="-1.5" x="-90.43333435058594" ry="4" rx="4" class="branchLabelBkg label1"></rect><g class="branchLabel"><g transform="translate(-100.43333435058594, 79.5)" class="label branch-label1"><text><tspan class="row" x="0" dy="1em" xml:space="preserve">develop</tspan></text></g></g><line class="branch branch2" y2="180" x2="1100" y1="180" x1="0"></line><rect transform="translate(-19, 170.5)" height="23" width="197.86666870117188" y="-1.5" x="-213.86666870117188" ry="4" rx="4" class="branchLabelBkg label2"></rect><g class="branchLabel"><g transform="translate(-223.86666870117188, 169.5)" class="label branch-label2"><text><tspan class="row" x="0" dy="1em" xml:space="preserve">feature/02-requirements</tspan></text></g></g><line class="branch branch3" y2="270" x2="1100" y1="270" x1="0"></line><rect transform="translate(-19, 260.5)" height="23" width="147.61666870117188" y="-1.5" x="-163.61666870117188" ry="4" rx="4" class="branchLabelBkg label3"></rect><g class="branchLabel"><g transform="translate(-173.61666870117188, 259.5)" class="label branch-label3"><text><tspan class="row" x="0" dy="1em" xml:space="preserve">feature/03-design</tspan></text></g></g><line class="branch branch4" y2="360" x2="1100" y1="360" x1="0"></line><rect transform="translate(-19, 350.5)" height="23" width="173.21665954589844" y="-1.5" x="-189.21665954589844" ry="4" rx="4" class="branchLabelBkg label4"></rect><g class="branchLabel"><g transform="translate(-199.21665954589844, 349.5)" class="label branch-label4"><text><tspan class="row" x="0" dy="1em" xml:space="preserve">feature/05-validation</tspan></text></g></g><line class="branch branch5" y2="450" x2="1100" y1="450" x1="0"></line><rect transform="translate(-19, 440.5)" height="23" width="195.68333435058594" y="-1.5" x="-211.68333435058594" ry="4" rx="4" class="branchLabelBkg label5"></rect><g class="branchLabel"><g transform="translate(-221.68333435058594, 439.5)" class="label branch-label5"><text><tspan class="row" x="0" dy="1em" xml:space="preserve">feature/04-development</tspan></text></g></g><line class="branch branch6" y2="540" x2="1100" y1="540" x1="0"></line><rect transform="translate(-19, 530.5)" height="23" width="70.01666641235352" y="-1.5" x="-86.01666641235352" ry="4" rx="4" class="branchLabelBkg label6"></rect><g class="branchLabel"><g transform="translate(-96.01666641235352, 529.5)" class="label branch-label6"><text><tspan class="row" x="0" dy="1em" xml:space="preserve">release</tspan></text></g></g></g><g class="commit-arrows"><path class="arrow arrow0" d="M 10 0 L 60 0"></path><path class="arrow arrow0" d="M 60 0 L 110 0"></path><path class="arrow arrow1" d="M 110 0 L 110 70 A 20 20, 0, 0, 0, 130 90 L 160 90"></path><path class="arrow arrow1" d="M 160 90 L 210 90"></path><path class="arrow arrow2" d="M 210 90 L 210 160 A 20 20, 0, 0, 0, 230 180 L 260 180"></path><path class="arrow arrow1" d="M 210 90 L 310 90"></path><path class="arrow arrow2" d="M 260 180 L 290 180 A 20 20, 0, 0, 0, 310 160 L 310 90"></path><path class="arrow arrow1" d="M 310 90 L 360 90"></path><path class="arrow arrow3" d="M 360 90 L 360 250 A 20 20, 0, 0, 0, 380 270 L 410 270"></path><path class="arrow arrow4" d="M 410 270 L 410 340 A 20 20, 0, 0, 0, 430 360 L 460 360"></path><path class="arrow arrow3" d="M 410 270 L 510 270"></path><path class="arrow arrow4" d="M 460 360 L 560 360"></path><path class="arrow arrow3" d="M 510 270 L 540 270 A 20 20, 0, 0, 1, 560 290 L 560 360"></path><path class="arrow arrow4" d="M 560 360 L 610 360"></path><path class="arrow arrow5" d="M 610 360 L 610 430 A 20 20, 0, 0, 0, 630 450 L 660 450"></path><path class="arrow arrow1" d="M 360 90 L 710 90"></path><path class="arrow arrow5" d="M 660 450 L 690 450 A 20 20, 0, 0, 0, 710 430 L 710 90"></path><path class="arrow arrow1" d="M 710 90 L 760 90"></path><path class="arrow arrow1" d="M 760 90 L 810 90"></path><path class="arrow arrow1" d="M 810 90 L 860 90"></path><path class="arrow arrow1" d="M 860 90 L 910 90"></path><path class="arrow arrow6" d="M 910 90 L 910 520 A 20 20, 0, 0, 0, 930 540 L 960 540"></path><path class="arrow arrow0" d="M 110 0 L 1010 0"></path><path class="arrow arrow6" d="M 960 540 L 990 540 A 20 20, 0, 0, 0, 1010 520 L 1010 0"></path><path class="arrow arrow0" d="M 1010 0 L 1060 0"></path></g><g class="commit-bullets"><circle class="commit use template commit0" r="10" cy="0" cx="10"></circle><circle class="commit write title commit0" r="10" cy="0" cx="60"></circle><circle class="commit write authors commit0" r="10" cy="0" cx="110"></circle><circle class="commit write abstract commit1" r="10" cy="90" cx="160"></circle><circle class="commit write concept commit1" r="10" cy="90" cx="210"></circle><circle class="commit write requirements commit2" r="10" cy="180" cx="260"></circle><circle class="commit 6-ca399f8 commit1" r="9" cy="90" cx="310"></circle><circle class="commit commit-merge 6-ca399f8 commit1" r="6" cy="90" cx="310"></circle><circle class="commit integrate requirements commit1" r="10" cy="90" cx="360"></circle><circle class="commit design class 1 commit3" r="10" cy="270" cx="410"></circle><circle class="commit test class 1 commit4" r="10" cy="360" cx="460"></circle><circle class="commit design class 2 commit3" r="10" cy="270" cx="510"></circle><circle class="commit 11-83d3e58 commit4" r="9" cy="360" cx="560"></circle><circle class="commit commit-merge 11-83d3e58 commit4" r="6" cy="360" cx="560"></circle><circle class="commit test class 2 commit4" r="10" cy="360" cx="610"></circle><circle class="commit implement class 1 commit5" r="10" cy="450" cx="660"></circle><circle class="commit 14-63f5efb commit1" r="9" cy="90" cx="710"></circle><circle class="commit commit-merge 14-63f5efb commit1" r="6" cy="90" cx="710"></circle><circle class="commit integrate sections commit1" r="10" cy="90" cx="760"></circle><circle class="commit 16-f910ace commit1" r="10" cy="90" cx="810"></circle><rect class="commit ... commit-highlight1 commit-highlight-outer" width="20" height="20" y="80" x="850"></rect><rect class="commit ... commit1 commit-highlight-inner" width="12" height="12" y="84" x="854"></rect><circle class="commit 18-de71c85 commit1" r="10" cy="90" cx="910"></circle><circle class="commit final adjustments commit6" r="10" cy="540" cx="960"></circle><circle class="commit 20-e610342 commit0" r="9" cy="0" cx="1010"></circle><circle class="commit commit-merge 20-e610342 commit0" r="6" cy="0" cx="1010"></circle><circle class="commit submittable commit0" r="10" cy="0" cx="1060"></circle></g><g class="commit-labels"><g transform="translate(-33.72, 30.06) rotate(-45, 0, 0)"><rect height="15" width="63" y="13.5" x="-21.5" class="commit-label-bkg"></rect><text class="commit-label" y="25" x="-19.5">use template</text></g><polygon points="-16,-17.2
          -16,-21.2
          -8,-26.7
          28,-26.7
          28,-11.7
          -8,-11.7" class="tag-label-bkg"></polygon><circle class="tag-hole" r="1.5" cy="-19.2" cx="-12"></circle><text x="-4" class="tag-label" y="-16">initial</text><g transform="translate(-29.54, 26.32) rotate(-45, 50, 0)"><rect height="15" width="52" y="13.5" x="34" class="commit-label-bkg"></rect><text class="commit-label" y="25" x="36">write title</text></g><g transform="translate(-35.239999999999995, 31.42) rotate(-45, 100, 0)"><rect height="15" width="67" y="13.5" x="76.5" class="commit-label-bkg"></rect><text class="commit-label" y="25" x="78.5">write authors</text></g><g transform="translate(-37.14, 33.120000000000005) rotate(-45, 150, 90)"><rect height="15" width="72" y="103.5" x="124" class="commit-label-bkg"></rect><text class="commit-label" y="115" x="126">write abstract</text></g><g transform="translate(-36, 32.1) rotate(-45, 200, 90)"><rect height="15" width="69" y="103.5" x="175.5" class="commit-label-bkg"></rect><text class="commit-label" y="115" x="177.5">write concept</text></g><g transform="translate(-45.5, 40.6) rotate(-45, 250, 180)"><rect height="15" width="94" y="193.5" x="213" class="commit-label-bkg"></rect><text class="commit-label" y="205" x="215">write requirements</text></g><g transform="translate(-51.959999999999994, 46.38) rotate(-45, 350, 90)"><rect height="15" width="111" y="103.5" x="304.5" class="commit-label-bkg"></rect><text class="commit-label" y="115" x="306.5">integrate requirements</text></g><g transform="translate(-34.86, 31.08) rotate(-45, 400, 270)"><rect height="15" width="66" y="283.5" x="377" class="commit-label-bkg"></rect><text class="commit-label" y="295" x="379">design class 1</text></g><g transform="translate(-30.68, 27.34) rotate(-45, 450, 360)"><rect height="15" width="55" y="373.5" x="432.5" class="commit-label-bkg"></rect><text class="commit-label" y="385" x="434.5">test class 1</text></g><g transform="translate(-34.86, 31.08) rotate(-45, 500, 270)"><rect height="15" width="66" y="283.5" x="477" class="commit-label-bkg"></rect><text class="commit-label" y="295" x="479">design class 2</text></g><g transform="translate(-30.68, 27.34) rotate(-45, 600, 360)"><rect height="15" width="55" y="373.5" x="582.5" class="commit-label-bkg"></rect><text class="commit-label" y="385" x="584.5">test class 2</text></g><g transform="translate(-41.7, 37.2) rotate(-45, 650, 450)"><rect height="15" width="84" y="463.5" x="618" class="commit-label-bkg"></rect><text class="commit-label" y="475" x="620">implement class 1</text></g><g transform="translate(-42.46, 37.879999999999995) rotate(-45, 750, 90)"><rect height="15" width="86" y="103.5" x="717" class="commit-label-bkg"></rect><text class="commit-label" y="115" x="719">integrate sections</text></g><g transform="translate(-30.68, 27.34) rotate(-45, 800, 90)"><rect height="15" width="55" y="103.5" x="782.5" class="commit-label-bkg"></rect><text class="commit-label" y="115" x="784.5">16-f910ace</text></g><g transform="translate(-17, 15.1) rotate(-45, 850, 90)"><rect height="15" width="19" y="103.5" x="850.5" class="commit-label-bkg"></rect><text class="commit-label" y="115" x="852.5">...</text></g><g transform="translate(-31.44, 28.02) rotate(-45, 900, 90)"><rect height="15" width="57" y="103.5" x="881.5" class="commit-label-bkg"></rect><text class="commit-label" y="115" x="883.5">18-de71c85</text></g><g transform="translate(-41.32, 36.86) rotate(-45, 950, 540)"><rect height="15" width="83" y="553.5" x="918.5" class="commit-label-bkg"></rect><text class="commit-label" y="565" x="920.5">final adjustments</text></g><g transform="translate(-32.2, 28.700000000000003) rotate(-45, 1050, 0)"><rect height="15" width="59" y="13.5" x="1030.5" class="commit-label-bkg"></rect><text class="commit-label" y="25" x="1032.5">submittable</text></g><polygon points="1039.5,-17.2
          1039.5,-21.2
          1047.5,-26.7
          1072.5,-26.7
          1072.5,-11.7
          1047.5,-11.7" class="tag-label-bkg"></polygon><circle class="tag-hole" r="1.5" cy="-19.2" cx="1043.5"></circle><text x="1051.5" class="tag-label" y="-16">1.0</text></g></svg>