<?xml version="1.0" encoding="UTF-8"?><svg xmlns="http://www.w3.org/2000/svg" xmlns:xlink="http://www.w3.org/1999/xlink" fill-opacity="1" color-rendering="auto" color-interpolation="auto" text-rendering="auto" stroke="black" stroke-linecap="square" width="553" stroke-miterlimit="10" shape-rendering="auto" stroke-opacity="1" fill="black" stroke-dasharray="none" font-weight="normal" stroke-width="1" height="117" font-family="'Dialog'" font-style="normal" stroke-linejoin="miter" font-size="12px" stroke-dashoffset="0" image-rendering="auto">
  <!--Generated by ySVG 2.6-->
  <defs id="genericDefs"/>
  <g>
    <defs id="defs1">
      <linearGradient x1="528.1258" gradientUnits="userSpaceOnUse" x2="585.4701" y1="283" y2="323" id="linearGradient1" spreadMethod="reflect">
        <stop stop-opacity="1" stop-color="rgb(232,238,247)" offset="0%"/>
        <stop stop-opacity="1" stop-color="rgb(183,201,227)" offset="100%"/>
      </linearGradient>
      <linearGradient x1="624.6059" gradientUnits="userSpaceOnUse" x2="667.3941" y1="283" y2="323" id="linearGradient2" spreadMethod="reflect">
        <stop stop-opacity="1" stop-color="rgb(232,238,247)" offset="0%"/>
        <stop stop-opacity="1" stop-color="rgb(183,201,227)" offset="100%"/>
      </linearGradient>
      <linearGradient x1="706.5299" gradientUnits="userSpaceOnUse" x2="744.05" y1="283" y2="323" id="linearGradient3" spreadMethod="reflect">
        <stop stop-opacity="1" stop-color="rgb(232,238,247)" offset="0%"/>
        <stop stop-opacity="1" stop-color="rgb(183,201,227)" offset="100%"/>
      </linearGradient>
      <linearGradient x1="1013.2659" gradientUnits="userSpaceOnUse" x2="1078.1741" y1="283" y2="323" id="linearGradient4" spreadMethod="reflect">
        <stop stop-opacity="1" stop-color="rgb(232,238,247)" offset="0%"/>
        <stop stop-opacity="1" stop-color="rgb(183,201,227)" offset="100%"/>
      </linearGradient>
      <linearGradient x1="783.1859" gradientUnits="userSpaceOnUse" x2="883.2302" y1="259.5" y2="346.5" id="linearGradient5" spreadMethod="reflect">
        <stop stop-opacity="1" stop-color="rgb(232,238,247)" offset="0%"/>
        <stop stop-opacity="1" stop-color="rgb(183,201,227)" offset="100%"/>
      </linearGradient>
      <linearGradient x1="919.5759" gradientUnits="userSpaceOnUse" x2="976.9202" y1="283" y2="323" id="linearGradient6" spreadMethod="reflect">
        <stop stop-opacity="1" stop-color="rgb(232,238,247)" offset="0%"/>
        <stop stop-opacity="1" stop-color="rgb(183,201,227)" offset="100%"/>
      </linearGradient>
      <clipPath clipPathUnits="userSpaceOnUse" id="clipPath1">
        <path d="M0 0 L553 0 L553 117 L0 117 L0 0 Z"/>
      </clipPath>
      <clipPath clipPathUnits="userSpaceOnUse" id="clipPath2">
        <path d="M527 258 L1080 258 L1080 375 L527 375 L527 258 Z"/>
      </clipPath>
    </defs>
    <g fill="url(#linearGradient1)" text-rendering="geometricPrecision" shape-rendering="geometricPrecision" transform="matrix(1,0,0,1,-527,-258)" stroke="url(#linearGradient1)">
      <ellipse rx="28.6722" ry="20" clip-path="url(#clipPath2)" cx="556.7979" cy="303" stroke="none"/>
    </g>
    <g text-rendering="geometricPrecision" stroke-miterlimit="1.45" shape-rendering="geometricPrecision" transform="matrix(1,0,0,1,-527,-258)" stroke-linecap="butt">
      <ellipse rx="28.6722" fill="none" ry="20" clip-path="url(#clipPath2)" cx="556.7979" cy="303"/>
      <text x="543.3278" xml:space="preserve" y="307.656" clip-path="url(#clipPath2)" font-family="sans-serif" stroke="none">Start</text>
    </g>
    <g fill="url(#linearGradient2)" text-rendering="geometricPrecision" shape-rendering="geometricPrecision" transform="matrix(1,0,0,1,-527,-258)" stroke="url(#linearGradient2)">
      <path d="M624.6059 283 L667.3941 283 L667.3941 323 L624.6059 323 Z" stroke="none" clip-path="url(#clipPath2)"/>
    </g>
    <g text-rendering="geometricPrecision" stroke-miterlimit="1.45" shape-rendering="geometricPrecision" transform="matrix(1,0,0,1,-527,-258)" stroke-linecap="butt">
      <path fill="none" d="M624.6059 283 L667.3941 283 L667.3941 323 L624.6059 323 Z" clip-path="url(#clipPath2)"/>
      <text x="631.6059" xml:space="preserve" y="307.656" clip-path="url(#clipPath2)" font-family="sans-serif" stroke="none">Build</text>
    </g>
    <g fill="url(#linearGradient3)" text-rendering="geometricPrecision" shape-rendering="geometricPrecision" transform="matrix(1,0,0,1,-527,-258)" stroke="url(#linearGradient3)">
      <path d="M706.5299 283 L744.05 283 L744.05 323 L706.5299 323 Z" stroke="none" clip-path="url(#clipPath2)"/>
    </g>
    <g text-rendering="geometricPrecision" stroke-miterlimit="1.45" shape-rendering="geometricPrecision" transform="matrix(1,0,0,1,-527,-258)" stroke-linecap="butt">
      <path fill="none" d="M706.5299 283 L744.05 283 L744.05 323 L706.5299 323 Z" clip-path="url(#clipPath2)"/>
      <text x="713.5299" xml:space="preserve" y="307.656" clip-path="url(#clipPath2)" font-family="sans-serif" stroke="none">Test</text>
    </g>
    <g fill="url(#linearGradient4)" text-rendering="geometricPrecision" shape-rendering="geometricPrecision" transform="matrix(1,0,0,1,-527,-258)" stroke="url(#linearGradient4)">
      <rect x="1013.2659" y="283" clip-path="url(#clipPath2)" width="64.9081" rx="20" ry="20" height="40" stroke="none"/>
    </g>
    <g text-rendering="geometricPrecision" stroke-miterlimit="1.45" stroke-width="3" shape-rendering="geometricPrecision" transform="matrix(1,0,0,1,-527,-258)" stroke-linecap="butt">
      <rect x="1013.2659" y="283" clip-path="url(#clipPath2)" fill="none" width="64.9081" rx="20" ry="20" height="40"/>
      <text x="1034.986" y="307.656" clip-path="url(#clipPath2)" font-family="sans-serif" stroke="none" stroke-width="1" xml:space="preserve">End</text>
    </g>
    <g fill="url(#linearGradient5)" text-rendering="geometricPrecision" shape-rendering="geometricPrecision" transform="matrix(1,0,0,1,-527,-258)" stroke="url(#linearGradient5)">
      <path d="M833.2081 259.5 L883.2302 303 L833.2081 346.5 L783.1859 303 Z" stroke="none" clip-path="url(#clipPath2)"/>
    </g>
    <g text-rendering="geometricPrecision" stroke-miterlimit="1.45" shape-rendering="geometricPrecision" transform="matrix(1,0,0,1,-527,-258)" stroke-linecap="butt">
      <path fill="none" d="M833.2081 259.5 L883.2302 303 L833.2081 346.5 L783.1859 303 Z" clip-path="url(#clipPath2)"/>
      <text x="814.0499" xml:space="preserve" y="299.484" clip-path="url(#clipPath2)" font-family="sans-serif" stroke="none">should</text>
      <text x="810.1859" xml:space="preserve" y="315.8281" clip-path="url(#clipPath2)" font-family="sans-serif" stroke="none">release?</text>
    </g>
    <g fill="url(#linearGradient6)" text-rendering="geometricPrecision" shape-rendering="geometricPrecision" transform="matrix(1,0,0,1,-527,-258)" stroke="url(#linearGradient6)">
      <path d="M919.5759 283 L976.9202 283 L976.9202 323 L919.5759 323 Z" stroke="none" clip-path="url(#clipPath2)"/>
    </g>
    <g text-rendering="geometricPrecision" stroke-miterlimit="1.45" shape-rendering="geometricPrecision" transform="matrix(1,0,0,1,-527,-258)" stroke-linecap="butt">
      <path fill="none" d="M919.5759 283 L976.9202 283 L976.9202 323 L919.5759 323 Z" clip-path="url(#clipPath2)"/>
      <text x="926.5759" xml:space="preserve" y="307.656" clip-path="url(#clipPath2)" font-family="sans-serif" stroke="none">Release</text>
    </g>
    <g text-rendering="geometricPrecision" stroke-miterlimit="1.45" stroke-dasharray="6,2" shape-rendering="geometricPrecision" transform="matrix(1,0,0,1,-527,-258)" stroke-linecap="butt">
      <path fill="none" d="M585.5012 303 L619.5832 303" clip-path="url(#clipPath2)"/>
    </g>
    <g text-rendering="geometricPrecision" stroke-miterlimit="1.45" stroke-dasharray="6,2" shape-rendering="geometricPrecision" transform="matrix(1,0,0,1,-527,-258)" stroke-linecap="butt">
      <path d="M623.5832 303 L611.5832 297 L623.5832 303 L611.5832 309 Z" stroke="none" clip-path="url(#clipPath2)"/>
      <path fill="none" stroke-miterlimit="10" stroke-dasharray="none" d="M623.5832 303 L611.5832 297 L623.5832 303 L611.5832 309 Z" clip-path="url(#clipPath2)" stroke-linecap="square"/>
      <path fill="none" d="M667.4099 303 L701.5524 303" clip-path="url(#clipPath2)"/>
      <path d="M705.5524 303 L693.5524 297 L705.5524 303 L693.5524 309 Z" clip-path="url(#clipPath2)" stroke="none"/>
      <path fill="none" stroke-miterlimit="10" stroke-dasharray="none" d="M705.5524 303 L693.5524 297 L705.5524 303 L693.5524 309 Z" clip-path="url(#clipPath2)" stroke-linecap="square"/>
      <path fill="none" d="M744.0756 303 L778.2016 303" clip-path="url(#clipPath2)"/>
      <path d="M782.2016 303 L770.2016 297 L782.2016 303 L770.2016 309 Z" clip-path="url(#clipPath2)" stroke="none"/>
      <path fill="none" stroke-miterlimit="10" stroke-dasharray="none" d="M782.2016 303 L770.2016 297 L782.2016 303 L770.2016 309 Z" clip-path="url(#clipPath2)" stroke-linecap="square"/>
      <path fill="none" d="M833.2081 346.5107 L833.2081 373 L1045.72 373 L1045.72 327.9951" clip-path="url(#clipPath2)"/>
      <path d="M1045.72 323.9951 L1039.72 335.9951 L1045.72 323.9951 L1051.72 335.9951 Z" clip-path="url(#clipPath2)" stroke="none"/>
      <path fill="none" stroke-miterlimit="10" stroke-dasharray="none" d="M1045.72 323.9951 L1039.72 335.9951 L1045.72 323.9951 L1051.72 335.9951 Z" clip-path="url(#clipPath2)" stroke-linecap="square"/>
      <text x="934.6496" y="367.9253" clip-path="url(#clipPath2)" font-family="sans-serif" stroke-dasharray="none" stroke="none" xml:space="preserve">no</text>
      <path fill="none" d="M883.2291 303 L914.5801 303" clip-path="url(#clipPath2)"/>
      <path d="M918.5801 303 L906.5801 297 L918.5801 303 L906.5801 309 Z" clip-path="url(#clipPath2)" stroke="none"/>
      <path fill="none" stroke-miterlimit="10" stroke-dasharray="none" d="M918.5801 303 L906.5801 297 L918.5801 303 L906.5801 309 Z" clip-path="url(#clipPath2)" stroke-linecap="square"/>
      <path fill="none" d="M976.9471 303 L1008.2476 303" clip-path="url(#clipPath2)"/>
      <path d="M1012.2476 303 L1000.2476 297 L1012.2476 303 L1000.2476 309 Z" clip-path="url(#clipPath2)" stroke="none"/>
      <path fill="none" stroke-miterlimit="10" stroke-dasharray="none" d="M1012.2476 303 L1000.2476 297 L1012.2476 303 L1000.2476 309 Z" clip-path="url(#clipPath2)" stroke-linecap="square"/>
    </g>
  </g>
</svg>
